<?xml version="1.0" encoding="utf-8"?>
<!-- Generator: Adobe Illustrator 16.0.0, SVG Export Plug-In . SVG Version: 6.00 Build 0)  -->
<svg version="1.2" baseProfile="tiny" id="Layer_1" xmlns="http://www.w3.org/2000/svg" xmlns:xlink="http://www.w3.org/1999/xlink"
	 x="0px" y="0px" width="300px" height="300px" viewBox="0 0 300 300" xml:space="preserve">
<rect x="-1.249" y="-0.565" display="none" fill="#414042" width="303.346" height="301.487"/>
<path fill="#F1F2F2" d="M150,25.781c-40.992,0-75.219,34.227-75.219,75.219s34.227,75.219,75.219,75.219
	c40.992,0,75.218-34.227,75.218-75.219S190.992,25.781,150,25.781z M150,154.242c-39.408,0-66.14-42.73-48.588-78.189
	c0.17,19.163,16.458,37.479,36.779,34.344c10.842-1.671,20.11-11.441,17.475-22.93c-2.469,9.55-10.201,12.487-17.847,12.728
	c-14.099-2.45-19.665-15.639-16.753-27.627c4.045-16.651,19.822-25.695,35.975-24.709c24.149,1.473,43.163,20.588,46.591,44.417
	C208.267,124.494,182.566,154.242,150,154.242z"/>
<rect x="9.108" y="233.695" fill="none" width="281.785" height="28.608"/>
<text transform="matrix(1 0 0 1 9.8735 252.791)" fill="#A7A9AC" font-family="'GillSans-Light'" font-size="28">t</text>
<text transform="matrix(1 0 0 1 19.1069 252.791)" fill="#A7A9AC" font-family="'GillSans-Light'" font-size="28">h</text>
<text transform="matrix(1 0 0 1 33.6172 252.791)" fill="#A7A9AC" font-family="'GillSans-Light'" font-size="28">e</text>
<text transform="matrix(1 0 0 1 47.8135 252.791)" fill="#A7A9AC" font-family="'GillSans-Light'" font-size="28"> </text>
<text transform="matrix(1 0 0 1 56.377 252.791)" fill="#A7A9AC" font-family="'GillSans-Light'" font-size="28">r</text>
<text transform="matrix(1 0 0 1 66.4849 252.791)" fill="#A7A9AC" font-family="'GillSans-Light'" font-size="28">e</text>
<text transform="matrix(1 0 0 1 80.6812 252.791)" fill="#A7A9AC" font-family="'GillSans-Light'" font-size="28">t</text>
<text transform="matrix(1 0 0 1 89.9141 252.791)" fill="#A7A9AC" font-family="'GillSans-Light'" font-size="28">u</text>
<text transform="matrix(1 0 0 1 104.4248 252.791)" fill="#A7A9AC" font-family="'GillSans-Light'" font-size="28">r</text>
<text transform="matrix(1 0 0 1 115.2305 252.791)" fill="#A7A9AC" font-family="'GillSans-Light'" font-size="28">n</text>
<text transform="matrix(1 0 0 1 129.7407 252.791)" fill="#A7A9AC" font-family="'GillSans-Light'" font-size="28"> </text>
<text transform="matrix(1 0 0 1 138.3042 252.791)" fill="#A7A9AC" font-family="'GillSans-Light'" font-size="28">t</text>
<text transform="matrix(1 0 0 1 147.5376 252.791)" fill="#A7A9AC" font-family="'GillSans-Light'" font-size="28">o</text>
<text transform="matrix(1 0 0 1 163.4971 252.791)" fill="#A7A9AC" font-family="'GillSans-Light'" font-size="28"> </text>
<text transform="matrix(1 0 0 1 172.0596 252.791)" fill="#A7A9AC" font-family="'GillSans-Light'" font-size="28">i</text>
<text transform="matrix(1 0 0 1 178.1074 252.791)" fill="#A7A9AC" font-family="'GillSans-Light'" font-size="28">n</text>
<text transform="matrix(1 0 0 1 192.6182 252.791)" fill="#A7A9AC" font-family="'GillSans-Light'" font-size="28">n</text>
<text transform="matrix(1 0 0 1 207.1289 252.791)" fill="#A7A9AC" font-family="'GillSans-Light'" font-size="28">o</text>
<text transform="matrix(1 0 0 1 223.0889 252.791)" fill="#A7A9AC" font-family="'GillSans-Light'" font-size="28">c</text>
<text transform="matrix(1 0 0 1 235.5488 252.791)" fill="#A7A9AC" font-family="'GillSans-Light'" font-size="28">e</text>
<text transform="matrix(1 0 0 1 249.7441 252.791)" fill="#A7A9AC" font-family="'GillSans-Light'" font-size="28">n</text>
<text transform="matrix(1 0 0 1 264.2549 252.791)" fill="#A7A9AC" font-family="'GillSans-Light'" font-size="28">c</text>
<text transform="matrix(1 0 0 1 276.7148 252.791)" fill="#A7A9AC" font-family="'GillSans-Light'" font-size="28">e</text>
</svg>
