<?xml version="1.0" encoding="utf-8"?>
<!-- Generator: Adobe Illustrator 16.0.0, SVG Export Plug-In . SVG Version: 6.00 Build 0)  -->
<!DOCTYPE svg PUBLIC "-//W3C//DTD SVG 1.1//EN" "http://www.w3.org/Graphics/SVG/1.1/DTD/svg11.dtd">
<svg version="1.1" id="Layer_1" xmlns="http://www.w3.org/2000/svg" xmlns:xlink="http://www.w3.org/1999/xlink" x="0px" y="0px"
	 width="300px" height="300px" viewBox="0 0 300 300" enable-background="new 0 0 300 300" xml:space="preserve">
<rect x="-1.249" y="-0.565" display="none" fill="#414042" width="303.346" height="301.487"/>
<radialGradient id="SVGID_1_" cx="297.5" cy="-120" r="137.25" gradientTransform="matrix(1 0 0 -1 -147.5 30)" gradientUnits="userSpaceOnUse">
	<stop  offset="0" style="stop-color:#FFFFFF;stop-opacity:0"/>
	<stop  offset="0.1396" style="stop-color:#F2F3F3;stop-opacity:0.0263"/>
	<stop  offset="0.3963" style="stop-color:#D0D2D3;stop-opacity:0.0746"/>
	<stop  offset="0.5309" style="stop-color:#BCBEC0;stop-opacity:0.1"/>
	<stop  offset="0.7013" style="stop-color:#6D6E6F;stop-opacity:0.0637"/>
	<stop  offset="0.8423" style="stop-color:#323333;stop-opacity:0.0336"/>
	<stop  offset="0.9455" style="stop-color:#0E0E0E;stop-opacity:0.0116"/>
	<stop  offset="1" style="stop-color:#000000;stop-opacity:0"/>
</radialGradient>
<circle display="none" fill="url(#SVGID_1_)" cx="150" cy="150" r="137.25"/>
<path fill="#F2F2F2" d="M150.001,6.827C71.666,6.827,6.257,71.974,6.257,150c0,78.024,65.408,143.173,143.744,143.173
	c78.335,0,143.741-65.148,143.741-143.173C293.744,71.976,228.338,6.827,150.001,6.827z M150.001,251.342
	c-75.31,0-126.391-81.333-92.853-148.825c0.326,36.476,31.453,71.338,70.285,65.372c20.718-3.18,38.428-21.777,33.395-43.644
	c-4.719,18.175-19.493,23.769-34.106,24.228c-26.943-4.664-37.58-29.771-32.016-52.587c7.731-31.695,37.882-48.909,68.749-47.032
	c46.148,2.804,82.486,39.188,89.037,84.542C261.35,194.719,212.236,251.342,150.001,251.342z"/>
</svg>
